<svg width="270" height="270" viewBox="0 0 270 270" fill="none" xmlns="http://www.w3.org/2000/svg">
<rect width="270" height="270" fill="white"/>
<path d="M256 202.882C254.219 203.055 252.639 203.256 251.26 203.486C249.881 203.716 248.157 204.176 246.089 204.866C243.733 205.613 242.182 206.849 241.435 208.574C240.688 210.298 240.314 212.109 240.314 214.006V228.234C240.314 231.108 240.343 233.437 240.401 235.219C240.458 236.943 240.544 239.099 240.659 241.686C234.913 245.135 226.41 248.383 215.148 251.43C203.944 254.477 193.631 256 184.208 256C175.36 256 167.057 254.649 159.3 251.947C151.544 249.245 144.735 245.193 138.875 239.789C133.014 234.443 128.389 227.803 124.999 219.87C121.666 211.937 120 202.854 120 192.621C120 183.078 121.58 174.254 124.74 166.148C127.9 158.043 132.468 151.058 138.444 145.195C144.304 139.388 151.429 134.904 159.817 131.743C168.264 128.581 177.6 127 187.828 127C194.78 127 201.215 127.862 207.133 129.587C213.051 131.254 217.935 133.065 221.785 135.019L227.128 130.277H234.626L235.402 174.944H227.817C223.451 161.549 218.222 151.604 212.132 145.108C206.041 138.612 198.342 135.364 189.034 135.364C178.003 135.364 169.47 140.193 163.437 149.851C157.462 159.509 154.474 172.817 154.474 189.775C154.474 207.769 157.404 221.853 163.265 232.028C169.183 242.203 177.543 247.291 188.345 247.291C193.401 247.291 197.883 246.543 201.79 245.049C205.754 243.497 208.828 241.715 211.011 239.703V214.868C211.011 212.799 210.638 211.074 209.891 209.695C209.144 208.257 207.65 207.021 205.409 205.987C203.686 205.182 201.531 204.521 198.946 204.003C196.36 203.486 194.205 203.112 192.482 202.882V196.156H256V202.882Z" fill="black"/>
<path d="M158 138H91.1459V131.279C94.2595 131.049 97.9207 130.503 102.13 129.641C106.339 128.722 108.443 127.602 108.443 126.281C108.443 125.821 108.386 125.304 108.27 124.73C108.213 124.155 107.982 123.38 107.578 122.403L97.1135 97.0688H54.7351C53.755 99.4241 52.6595 102.182 51.4486 105.341C50.2955 108.501 49.2865 111.316 48.4216 113.786C47.3261 117.003 46.6631 119.33 46.4324 120.766C46.2595 122.202 46.173 123.207 46.173 123.782C46.173 125.62 47.5568 127.2 50.3243 128.521C53.1496 129.785 57.8198 130.704 64.3351 131.279V138H14V131.279C15.9027 131.164 18.036 130.877 20.4 130.417C22.8216 129.9 24.7243 129.211 26.1081 128.349C28.4721 126.97 30.4613 125.275 32.0757 123.265C33.7477 121.254 35.1315 118.87 36.227 116.113C42.9153 99.9699 49.6036 83.7985 56.2919 67.5983C63.0378 51.3982 70.4757 33.5321 78.6054 14H95.9027C107.204 41.6896 116.054 63.577 122.454 79.6623C128.854 95.7475 134.303 109.075 138.8 119.646C139.55 121.369 140.501 122.949 141.654 124.385C142.807 125.764 144.45 127.085 146.584 128.349C148.198 129.268 150.072 129.957 152.205 130.417C154.339 130.877 156.27 131.164 158 131.279V138ZM93.5676 88.5379L75.7514 44.246L58.1946 88.5379H93.5676Z" fill="black"/>
</svg>
